#N canvas 781 260 539 519 12;
#X obj 21 237 +~;
#X obj 38 189 sig~;
#X floatatom 354 170 5 0 0 0 - - -;
#X obj 117 173 hsl 220 15 0 1000 0 0 empty empty delay -2 -8 0 10 -260097
-1 -1 7900 1;
#X text 219 108 Delay;
#X obj 322 114 bng 15 250 50 0 empty empty empty 17 7 0 10 -260097
-1 -1;
#X text 343 111 <=Reset;
#X obj 59 305 s~ delay;
#X obj 111 114 vradio 15 1 0 2 empty empty empty 0 -8 0 10 -260097
-1 -1 0;
#X obj 159 215 select;
#X msg 157 259 0;
#X msg 208 263 1;
#X obj 38 269 *~;
#X text 136 112 OFF;
#X text 136 126 ON;
#X msg 308 62 0;
#X obj 325 15 loadbang;
#X obj 432 157 *~;
#X msg 298 270 0;
#X msg 360 272 1;
#X obj 20 45 r~ freqshift;
#X obj 35 73 delwrite~ delayline2 1000;
#X obj 41 213 vd~ delayline2;
#X connect 0 0 12 0;
#X connect 1 0 22 0;
#X connect 2 0 1 0;
#X connect 3 0 2 0;
#X connect 5 0 15 0;
#X connect 8 0 9 0;
#X connect 9 0 10 0;
#X connect 9 0 19 0;
#X connect 9 1 11 0;
#X connect 9 1 18 0;
#X connect 10 0 12 1;
#X connect 11 0 12 1;
#X connect 12 0 7 0;
#X connect 15 0 3 0;
#X connect 15 0 8 0;
#X connect 16 0 15 0;
#X connect 17 0 7 0;
#X connect 18 0 17 1;
#X connect 19 0 17 1;
#X connect 20 0 0 0;
#X connect 20 0 17 0;
#X connect 20 0 21 0;
#X connect 22 0 0 1;
#X coords 0 -1 1 1 300 100 2 100 100;
