#N canvas 883 79 1025 653 12;
#X text 211 108 Effects;
#X obj 125 131 bng 15 250 50 0 empty empty empty 17 7 0 10 -4032 -1
-1;
#X obj 124 156 bng 15 250 50 0 empty empty empty 17 7 0 10 -4032 -1
-1;
#X obj 124 181 bng 15 250 50 0 empty empty empty 17 7 0 10 -4032 -1
-1;
#X obj 125 214 bng 15 250 50 0 empty empty empty 17 7 0 10 -4032 -1
-1;
#X text 159 211 C3PO Star Wars;
#X text 157 181 Underwater Effect;
#X text 159 153 Gollum The Lord of the Rings;
#X text 161 129 Alien Dalek voice \, Dr. Who Series;
#X msg 446 168 0;
#X obj 446 302 s effectring;
#X msg 550 169 30;
#X msg 437 341 50;
#X obj 550 195 s effectLFOspeed;
#X msg 573 345 350;
#X obj 729 460 s effectLFOwave;
#X msg 729 345 0;
#X obj 871 460 s effectVibrato;
#X msg 871 345 1;
#X msg 129 377 10;
#X msg 168 377 0.4;
#X msg 210 377 5;
#X msg 625 516 10;
#X msg 730 492 0.9;
#X obj 437 421 s effectLFOspeed2;
#X msg 560 225 0.5;
#X obj 572 449 s effectLFOdepth2;
#X obj 560 283 s effectLFOdepth;
#X obj 168 469 s effectLFOdepth3;
#X obj 129 493 s effectLFOspeed3;
#X obj 210 443 s effectDelayflanger;
#X msg 261 378 1;
#X obj 261 411 s effectFlanger;
#X obj 625 554 s effectDelayfeed;
#X obj 730 525 s effectFeedfeed;
#X obj 921 528 s effectMixfeed;
#X msg 507 515 1;
#X obj 507 553 s effectFeed;
#X msg 921 493 10;
#X msg 58 379 0;
#X obj 37 415 s effectsinwave;
#X msg 71 510 100;
#X obj 86 557 s effectmix;
#X connect 1 0 9 0;
#X connect 1 0 11 0;
#X connect 1 0 25 0;
#X connect 2 0 12 0;
#X connect 2 0 14 0;
#X connect 2 0 16 0;
#X connect 2 0 18 0;
#X connect 3 0 20 0;
#X connect 3 0 19 0;
#X connect 3 0 21 0;
#X connect 3 0 31 0;
#X connect 3 0 39 0;
#X connect 3 0 41 0;
#X connect 4 0 22 0;
#X connect 4 0 23 0;
#X connect 4 0 38 0;
#X connect 4 0 36 0;
#X connect 9 0 10 0;
#X connect 11 0 13 0;
#X connect 12 0 24 0;
#X connect 14 0 26 0;
#X connect 16 0 15 0;
#X connect 18 0 17 0;
#X connect 19 0 29 0;
#X connect 20 0 28 0;
#X connect 21 0 30 0;
#X connect 22 0 33 0;
#X connect 23 0 34 0;
#X connect 25 0 27 0;
#X connect 31 0 32 0;
#X connect 36 0 37 0;
#X connect 38 0 35 0;
#X connect 39 0 40 0;
#X connect 41 0 42 0;
#X coords 0 -1 1 1 300 140 2 100 100;
