#N canvas 776 132 1138 736 12;
#X obj 528 227 sig~;
#X floatatom 354 170 5 0 0 0 - - -;
#X obj 117 173 hsl 220 15 0 10 0 0 empty empty delay -2 -8 0 10 -260097
-1 -1 10950 1;
#X obj 322 114 bng 15 250 50 0 empty empty empty 17 7 0 10 -260097
-1 -1;
#X text 343 111 <=Reset;
#X obj 111 114 vradio 15 1 0 2 empty empty empty 0 -8 0 10 -260097
-1 -1 1;
#X obj 26 209 select;
#X msg 26 244 0;
#X msg 65 246 1;
#X obj 346 516 *~;
#X text 136 112 OFF;
#X text 136 126 ON;
#X msg 308 62 0;
#X obj 325 15 loadbang;
#X obj 36 396 *~;
#X msg 65 306 0;
#X msg 26 307 1;
#X obj 548 558 delwrite~ delayline3 1000;
#X obj 399 457 vd~ delayline3;
#X obj 303 681 s~ flanger;
#X text 219 108 Flanger;
#X obj 437 222 r~ LFO;
#X obj 198 14 r~ vibrato;
#X obj 422 413 +~;
#X obj 115 213 hsl 220 15 0 1 0 0 empty empty Feedback -2 -8 0 10 -4034
-1 -1 6300 1;
#X obj 600 508 *~;
#X floatatom 354 212 5 0 0 0 - - -;
#X obj 418 84 r effectDelayflanger;
#X obj 71 65 r effectFlanger;
#X obj 675 386 / 100;
#X obj 761 373 / 100;
#X obj 724 494 +~;
#X obj 775 451 *~;
#X obj 675 451 *~;
#X msg 678 273 100;
#X obj 757 328 -;
#X floatatom 357 269 5 0 0 0 - - -;
#X floatatom 112 271 5 0 0 0 - - -;
#X obj 164 272 hsl 180 15 0 100 0 0 empty empty empty -2 -8 0 10 -228856
-1 -1 0 1;
#X obj 232 504 *~;
#X text 111 249 Processed %;
#X text 319 248 Original %;
#X msg 479 151 0;
#X msg 502 182 100;
#X obj 65 32 r effectmix;
#X msg 475 258 0;
#X msg 612 170 0.5;
#X connect 0 0 23 1;
#X connect 1 0 0 0;
#X connect 2 0 1 0;
#X connect 3 0 12 0;
#X connect 3 0 42 0;
#X connect 5 0 6 0;
#X connect 6 0 7 0;
#X connect 6 0 16 0;
#X connect 6 1 8 0;
#X connect 6 1 15 0;
#X connect 7 0 9 1;
#X connect 7 0 39 1;
#X connect 8 0 9 1;
#X connect 8 0 39 1;
#X connect 9 0 32 0;
#X connect 12 0 2 0;
#X connect 12 0 5 0;
#X connect 13 0 12 0;
#X connect 13 0 43 0;
#X connect 14 0 19 0;
#X connect 15 0 14 1;
#X connect 16 0 14 1;
#X connect 18 0 25 0;
#X connect 18 0 9 0;
#X connect 21 0 23 0;
#X connect 22 0 14 0;
#X connect 22 0 17 0;
#X connect 22 0 39 0;
#X connect 23 0 18 0;
#X connect 24 0 25 1;
#X connect 24 0 26 0;
#X connect 25 0 17 0;
#X connect 27 0 2 0;
#X connect 28 0 5 0;
#X connect 29 0 33 1;
#X connect 30 0 32 1;
#X connect 31 0 19 0;
#X connect 32 0 31 1;
#X connect 33 0 31 0;
#X connect 34 0 35 0;
#X connect 35 0 30 0;
#X connect 35 0 37 0;
#X connect 36 0 35 1;
#X connect 36 0 29 0;
#X connect 36 0 34 0;
#X connect 38 0 36 0;
#X connect 39 0 33 0;
#X connect 42 0 38 0;
#X connect 42 0 36 0;
#X connect 43 0 37 0;
#X connect 44 0 37 0;
#X connect 44 0 45 0;
#X connect 44 0 46 0;
#X connect 45 0 36 0;
#X connect 45 0 38 0;
#X connect 46 0 24 0;
#X coords 0 -1 1 1 300 200 2 100 100;
