#N canvas 677 149 783 747 12;
#X msg 117 71 0;
#X obj 120 167 hsl 220 15 -1000 1000 0 0 empty empty empty -2 -8 0
10 -260097 -1 -1 10950 1;
#X floatatom 351 167 5 0 0 0 - - -;
#X obj 353 208 sig~;
#X obj 354 242 phasor~;
#X obj 355 287 +~ -0.25;
#X obj 296 259 cos~;
#X obj 354 311 cos~;
#X obj 337 344 *~;
#X obj 16 277 *~;
#X obj 17 185 hilbert~;
#X obj 15 363 -~;
#X text 181 109 Frequency Shifting;
#X text 119 141 -1000;
#X text 306 143 1000;
#X obj 322 112 bng 15 250 50 0 empty empty empty 17 7 0 10 -260097
-1 -1;
#X text 340 109 <=Reset;
#X obj 117 47 loadbang;
#X obj 14 425 s~ freqshift;
#X obj 15 394 *~;
#X obj 225 20 select;
#X msg 226 49 0;
#X msg 266 49 1;
#X obj 107 106 vradio 15 1 0 2 empty empty empty 0 -8 0 10 -260097
-1 -1 0;
#X text 126 106 OFF;
#X text 125 119 ON;
#X obj 484 251 *~;
#X msg 313 50 1;
#X msg 366 50 0;
#X obj 16 22 r~ reverberation;
#X connect 0 0 1 0;
#X connect 0 0 23 0;
#X connect 1 0 2 0;
#X connect 2 0 3 0;
#X connect 3 0 4 0;
#X connect 4 0 5 0;
#X connect 4 0 6 0;
#X connect 4 0 7 0;
#X connect 6 0 9 1;
#X connect 7 0 8 1;
#X connect 8 0 11 1;
#X connect 9 0 11 0;
#X connect 10 0 9 0;
#X connect 10 1 8 0;
#X connect 11 0 19 0;
#X connect 15 0 0 0;
#X connect 17 0 0 0;
#X connect 19 0 18 0;
#X connect 20 0 21 0;
#X connect 20 0 27 0;
#X connect 20 1 22 0;
#X connect 20 1 28 0;
#X connect 21 0 19 1;
#X connect 22 0 19 1;
#X connect 23 0 20 0;
#X connect 26 0 18 0;
#X connect 27 0 26 1;
#X connect 28 0 26 1;
#X connect 29 0 10 0;
#X connect 29 0 26 0;
#X coords 0 -1 1 1 300 100 2 100 100;
