#N canvas 214 161 752 623 12;
#X floatatom 294 160 5 0 0 0 - - -;
#X floatatom 295 209 5 0 0 0 - - -;
#X obj 146 160 hsl 128 15 0 50 0 1 empty empty SPEED 50 8 0 10 -4034
-1 -1 2540 1;
#X obj 144 208 hsl 128 15 0 1 0 1 empty empty DEPTH 50 8 0 10 -4034
-1 -1 5080 1;
#X obj 193 114 vradio 15 1 0 2 empty empty empty 0 -8 0 10 -4034 -1
-1 0;
#X obj 312 117 bng 15 250 50 0 empty empty empty 17 7 0 10 -4034 -1
-1;
#X text 217 112 sin;
#X text 213 126 square;
#X text 140 180 0;
#X text 259 180 50;
#X text 138 227 0;
#X text 261 232 1;
#X obj 58 45 select;
#X msg 123 71 1;
#X msg 123 45 10000;
#X obj 17 166 *~;
#X obj 18 207 clip~ -1 1;
#X obj 18 242 *~;
#X msg 423 137 25;
#X msg 423 167 0.5;
#X text 338 116 <=RESET;
#X obj 18 133 osc~;
#X obj 23 287 s~ LFO;
#X obj 141 283 s depthoutput;
#X obj 267 49 loadbang;
#X obj 457 92 r effectLFOspeed;
#X obj 458 159 r effectLFOdepth;
#X obj 434 31 r effectLFOwave;
#X obj 457 184 r effectLFOdepth2;
#X obj 455 116 r effectLFOspeed2;
#X obj 455 141 r effectLFOspeed3;
#X obj 456 207 r effectLFOdepth3;
#X obj 473 62 r effectsinwave;
#X connect 2 0 0 0;
#X connect 2 0 21 0;
#X connect 3 0 1 0;
#X connect 3 0 17 1;
#X connect 3 0 23 0;
#X connect 4 0 12 0;
#X connect 5 0 18 0;
#X connect 5 0 19 0;
#X connect 12 0 13 0;
#X connect 12 1 14 0;
#X connect 13 0 15 1;
#X connect 14 0 15 1;
#X connect 15 0 16 0;
#X connect 16 0 17 0;
#X connect 17 0 22 0;
#X connect 18 0 2 0;
#X connect 19 0 3 0;
#X connect 21 0 15 0;
#X connect 24 0 5 0;
#X connect 24 0 4 0;
#X connect 25 0 2 0;
#X connect 26 0 3 0;
#X connect 27 0 4 0;
#X connect 28 0 3 0;
#X connect 29 0 2 0;
#X connect 30 0 2 0;
#X connect 31 0 3 0;
#X connect 32 0 4 0;
#X coords 0 -1 1 1 300 150 1 100 100;
