#N canvas 999 130 450 537 12;
#X obj 146 136 tgl 15 0 empty empty empty 17 7 0 10 -4034 -1 -1 0 1
;
#X obj 22 27 metro;
#X obj 101 30 expr 1000/($f1/60);
#X floatatom 267 158 5 0 0 0 - - -;
#X obj 147 219 bng 15 250 50 0 empty empty empty 17 7 0 10 -262144
-1 -1;
#X obj 118 269 del 50;
#X msg 118 308 0;
#X msg 160 309 1;
#X obj 100 349 *~;
#X obj 32 268 osc~ 300;
#X obj 143 187 hsl 220 15 30 1200 0 0 empty empty empty -2 -8 0 10
-260097 -1 -1 18156 1;
#X text 209 112 Metronome;
#X text 170 135 On/Off;
#X text 178 217 Bang of the metronome;
#X text 144 158 Bang is once per;
#X text 311 159 msecs;
#X msg 290 71 1000;
#X obj 290 36 loadbang;
#X obj 314 118 bng 15 250 50 0 empty empty empty 17 7 0 10 -258113
-1 -1;
#X text 333 117 <=Reset;
#X obj 113 415 +~;
#X obj 101 454 dac~;
#X msg 353 76 0;
#X obj 242 380 r~ Resultsent;
#X connect 0 0 1 0;
#X connect 1 0 4 0;
#X connect 2 0 3 0;
#X connect 3 0 1 1;
#X connect 4 0 5 0;
#X connect 4 0 7 0;
#X connect 5 0 6 0;
#X connect 6 0 8 1;
#X connect 7 0 8 1;
#X connect 8 0 20 0;
#X connect 9 0 8 0;
#X connect 10 0 2 0;
#X connect 16 0 10 0;
#X connect 17 0 16 0;
#X connect 17 0 22 0;
#X connect 18 0 16 0;
#X connect 20 0 21 0;
#X connect 20 0 21 1;
#X connect 22 0 0 0;
#X connect 23 0 20 1;
#X coords 0 -1 1 1 300 150 2 100 100;
