#N canvas 517 129 1121 640 12;
#X obj 184 174 hsl 128 15 0 100 0 0 empty empty empty -2 -8 0 10 -228856
-1 -1 6350 1;
#X floatatom 136 170 5 0 0 0 - - -;
#X msg 204 215 100;
#X obj 204 276 -;
#X obj 154 277 *~;
#X obj 276 279 *~;
#X floatatom 321 172 5 0 0 0 - - -;
#X obj 153 342 +~;
#X text 220 106 Mixer;
#X obj 153 128 bng 15 250 50 0 empty empty empty 17 7 0 10 -258113
-1 -1;
#X text 179 127 Reset to 50|50 setting;
#X text 132 147 Input A %;
#X text 290 149 Input B %;
#X msg 51 143 50;
#X obj 155 25 r~ voiceoutput;
#X obj 274 25 r~ fileoutput;
#X obj 152 406 s~ mixeroutput;
#X obj 54 23 loadbang;
#X obj 104 248 / 100;
#X obj 310 240 / 100;
#X connect 0 0 3 1;
#X connect 0 0 2 0;
#X connect 0 0 6 0;
#X connect 1 0 18 0;
#X connect 2 0 3 0;
#X connect 3 0 1 0;
#X connect 4 0 7 0;
#X connect 5 0 7 1;
#X connect 6 0 19 0;
#X connect 7 0 16 0;
#X connect 9 0 13 0;
#X connect 13 0 0 0;
#X connect 14 0 4 0;
#X connect 15 0 5 0;
#X connect 17 0 9 0;
#X connect 18 0 4 1;
#X connect 19 0 5 1;
#X coords 0 -1 1 1 300 100 2 100 100;
