#N canvas 1194 211 534 715 12;
#X obj 31 65 delwrite~ delayline 1000;
#X obj 30 36 r~ feedback;
#X obj 11 415 +~;
#X obj 112 137 hsl 128 15 0 100 0 0 empty empty Delay -2 -8 0 10 -260097
-1 -1 4000 1;
#X floatatom 251 137 5 0 0 0 - - -;
#X obj 28 349 sig~;
#X obj 29 375 vd~ delayline;
#X obj 234 387 *~;
#X obj 112 174 hsl 128 15 0 1 0 0 empty empty Feedback -2 -8 0 10 -260097
-1 -1 12100 1;
#X floatatom 252 171 5 0 0 0 - - -;
#X obj 252 350 sig~;
#X obj 234 411 s~ feedback;
#X text 150 108 Reverberation;
#X obj 311 111 bng 15 250 50 0 empty empty empty 17 7 0 10 -260097
-1 -1;
#X obj 12 540 s~ reverberation;
#X text 339 109 <=Reset;
#X obj 287 22 loadbang;
#X msg 314 54 0;
#X obj 12 492 *~;
#X obj 310 148 vradio 15 1 0 2 empty empty empty 0 -8 0 10 -260097
-1 -1 1;
#X obj 349 344 select;
#X msg 319 382 0;
#X msg 400 380 1;
#X text 333 145 OFF;
#X text 335 162 ON;
#X obj 11 6 r~ ringmod;
#X obj 454 323 *~;
#X msg 394 418 0;
#X msg 332 422 1;
#X obj 416 458 s rev;
#X obj 361 86 r effectFeed;
#X obj 144 19 r effectDelayfeed;
#X obj 365 36 r effectFeedfeed;
#X obj 160 220 hsl 180 15 0 100 0 0 empty empty empty -2 -8 0 10 -228856
-1 -1 0 1;
#X floatatom 351 219 5 0 0 0 - - -;
#X obj 190 509 / 100;
#X obj 282 503 -;
#X msg 277 473 100;
#X obj 284 532 / 100;
#X floatatom 109 218 5 0 0 0 - - -;
#X obj 232 591 *~;
#X obj 217 628 +~;
#X obj 302 584 *~;
#X obj 168 559 *~;
#X text 317 199 original %;
#X text 105 195 processed %;
#X obj 373 0 r effectMixfeed;
#X msg 427 166 100;
#X msg 425 194 0;
#X connect 1 0 0 0;
#X connect 2 0 7 0;
#X connect 2 0 18 0;
#X connect 3 0 4 0;
#X connect 4 0 5 0;
#X connect 5 0 6 0;
#X connect 6 0 2 1;
#X connect 7 0 11 0;
#X connect 8 0 9 0;
#X connect 9 0 10 0;
#X connect 10 0 7 1;
#X connect 13 0 17 0;
#X connect 16 0 17 0;
#X connect 16 0 47 0;
#X connect 16 0 48 0;
#X connect 17 0 3 0;
#X connect 17 0 8 0;
#X connect 17 0 19 0;
#X connect 18 0 42 0;
#X connect 19 0 20 0;
#X connect 20 0 21 0;
#X connect 20 0 28 0;
#X connect 20 1 22 0;
#X connect 20 1 27 0;
#X connect 21 0 18 1;
#X connect 21 0 29 0;
#X connect 21 0 43 1;
#X connect 22 0 18 1;
#X connect 22 0 29 0;
#X connect 22 0 43 1;
#X connect 25 0 0 0;
#X connect 25 0 2 0;
#X connect 25 0 26 0;
#X connect 25 0 43 0;
#X connect 26 0 14 0;
#X connect 27 0 26 1;
#X connect 28 0 26 1;
#X connect 30 0 19 0;
#X connect 31 0 3 0;
#X connect 32 0 8 0;
#X connect 33 0 34 0;
#X connect 34 0 35 0;
#X connect 34 0 37 0;
#X connect 34 0 36 1;
#X connect 35 0 40 1;
#X connect 36 0 38 0;
#X connect 36 0 39 0;
#X connect 37 0 36 0;
#X connect 38 0 42 1;
#X connect 40 0 41 1;
#X connect 41 0 14 0;
#X connect 42 0 41 0;
#X connect 43 0 40 0;
#X connect 46 0 33 0;
#X connect 46 0 34 0;
#X connect 47 0 39 0;
#X connect 48 0 34 0;
#X coords 0 -1 1 1 300 170 2 100 100;
