#N canvas 519 87 612 509 12;
#X obj 284 481 sig~;
#X obj 213 553 *~;
#X obj 266 432 r~ LFO;
#X obj 284 456 r depthoutput;
#X obj 152 136 vradio 15 1 0 2 empty empty empty 0 -8 0 10 -260097
-1 -1 1;
#X obj 283 185 select;
#X msg 175 228 1;
#X msg 227 234 0;
#X obj 191 500 *~;
#X text 172 151 OFF;
#X text 175 137 ON;
#X text 125 109 Ring Modulation;
#X obj 213 585 s~ ringmod;
#X obj 330 150 loadbang;
#X msg 297 246 0;
#X msg 347 246 1;
#X obj 409 383 *~;
#X obj 165 410 r~ tremolo;
#X msg 294 82 1;
#X obj 153 57 r effectring;
#X connect 0 0 1 1;
#X connect 1 0 12 0;
#X connect 2 0 1 1;
#X connect 3 0 0 0;
#X connect 4 0 5 0;
#X connect 5 0 6 0;
#X connect 5 0 14 0;
#X connect 5 1 7 0;
#X connect 5 1 15 0;
#X connect 6 0 8 1;
#X connect 7 0 8 1;
#X connect 8 0 1 0;
#X connect 13 0 6 0;
#X connect 13 0 18 0;
#X connect 14 0 16 1;
#X connect 15 0 16 1;
#X connect 16 0 12 0;
#X connect 17 0 8 0;
#X connect 17 0 16 0;
#X connect 18 0 4 0;
#X connect 19 0 4 0;
#X coords 0 -1 1 1 150 80 2 100 100;
