#N canvas 791 236 499 809 12;
#X obj 163 406 +~;
#X obj 180 379 sig~;
#X obj 164 432 *~ 0.5;
#X obj 109 451 *~;
#X obj 162 330 r~ LFO;
#X obj 180 354 r depthoutput;
#X obj 109 483 s~ tremolo;
#X obj 48 34 vradio 15 1 0 2 empty empty empty 0 -8 0 10 -260097 -1
-1 1;
#X obj 71 94 select;
#X msg 71 126 1;
#X msg 123 132 0;
#X obj 87 398 *~;
#X text 68 49 OFF;
#X text 71 35 ON;
#X text 39 11 Tremolo;
#X obj 195 66 loadbang;
#X msg 219 144 0;
#X msg 279 146 1;
#X obj 330 356 *~;
#X msg 166 36 1;
#X obj 59 312 r~ graphequ;
#X connect 0 0 2 0;
#X connect 1 0 0 1;
#X connect 2 0 3 1;
#X connect 3 0 6 0;
#X connect 4 0 0 0;
#X connect 5 0 1 0;
#X connect 7 0 8 0;
#X connect 8 0 9 0;
#X connect 8 0 16 0;
#X connect 8 1 10 0;
#X connect 8 1 17 0;
#X connect 9 0 11 1;
#X connect 10 0 11 1;
#X connect 11 0 3 0;
#X connect 15 0 10 0;
#X connect 15 0 19 0;
#X connect 16 0 18 1;
#X connect 17 0 18 1;
#X connect 18 0 6 0;
#X connect 19 0 7 0;
#X connect 20 0 11 0;
#X connect 20 0 18 0;
#X coords 0 -1 1 1 150 80 2 0 0;
