#N canvas 0 50 1201 818 12;
#X msg 117 71 0;
#X obj 120 167 hsl 220 15 -1000 1000 0 0 empty empty empty -2 -8 0
10 -260097 -1 -1 16550 1;
#X floatatom 351 167 5 0 0 0 - - -;
#X obj 596 234 sig~;
#X obj 597 268 phasor~;
#X obj 598 313 +~ -0.25;
#X obj 539 285 cos~;
#X obj 597 337 cos~;
#X obj 580 370 *~;
#X obj 17 304 *~;
#X obj 18 212 hilbert~;
#X obj 16 390 -~;
#X text 119 141 -1000;
#X text 306 143 1000;
#X obj 322 112 bng 15 250 50 0 empty empty empty 17 7 0 10 -260097
-1 -1;
#X text 340 109 <=Reset;
#X obj 117 47 loadbang;
#X obj 16 421 *~;
#X obj 225 20 select;
#X msg 226 49 0;
#X msg 266 49 1;
#X obj 107 106 vradio 15 1 0 2 empty empty empty 0 -8 0 10 -260097
-1 -1 0;
#X text 126 106 OFF;
#X text 125 119 ON;
#X obj 727 277 *~;
#X msg 313 50 1;
#X msg 366 50 0;
#X obj 547 7 r~ LFO;
#X obj 17 114 clip~ -1 1;
#X obj 15 567 s~ vibrato;
#X text 181 109 Vibrato;
#X obj 363 -2 r~ delay;
#X obj 539 83 r effectVibrato;
#X obj 167 219 hsl 180 15 0 100 0 0 empty empty empty -2 -8 0 10 -228856
-1 -1 0 1;
#X floatatom 358 219 5 0 0 0 - - -;
#X floatatom 114 217 5 0 0 0 - - -;
#X obj 332 478 / 100;
#X obj 423 478 / 100;
#X obj 415 523 *~;
#X obj 336 538 *~;
#X obj 407 582 +~;
#X msg 473 450 100;
#X obj 512 501 -;
#X obj 283 514 *~;
#X obj 544 419 *~;
#X obj 546 62 /~ 100;
#X text 322 195 Original %;
#X text 112 196 Processed %;
#X msg 415 157 100;
#X msg 455 159 0;
#X connect 0 0 1 0;
#X connect 0 0 21 0;
#X connect 1 0 2 0;
#X connect 2 0 3 0;
#X connect 3 0 4 0;
#X connect 4 0 5 0;
#X connect 4 0 6 0;
#X connect 4 0 7 0;
#X connect 6 0 9 1;
#X connect 7 0 8 1;
#X connect 8 0 44 1;
#X connect 9 0 11 0;
#X connect 10 0 9 0;
#X connect 10 1 8 0;
#X connect 11 0 17 0;
#X connect 14 0 0 0;
#X connect 16 0 0 0;
#X connect 16 0 48 0;
#X connect 16 0 49 0;
#X connect 17 0 38 0;
#X connect 18 0 19 0;
#X connect 18 0 25 0;
#X connect 18 1 20 0;
#X connect 18 1 26 0;
#X connect 19 0 17 1;
#X connect 19 0 43 1;
#X connect 20 0 17 1;
#X connect 20 0 43 1;
#X connect 21 0 18 0;
#X connect 24 0 29 0;
#X connect 25 0 24 1;
#X connect 26 0 24 1;
#X connect 27 0 45 0;
#X connect 28 0 10 0;
#X connect 31 0 24 0;
#X connect 31 0 43 0;
#X connect 31 0 28 0;
#X connect 32 0 21 0;
#X connect 33 0 34 0;
#X connect 33 0 41 0;
#X connect 34 0 42 1;
#X connect 34 0 36 0;
#X connect 36 0 39 1;
#X connect 37 0 38 1;
#X connect 38 0 40 1;
#X connect 39 0 40 0;
#X connect 40 0 29 0;
#X connect 41 0 42 0;
#X connect 42 0 37 0;
#X connect 42 0 35 0;
#X connect 43 0 39 0;
#X connect 44 0 11 1;
#X connect 45 0 44 0;
#X connect 48 0 35 0;
#X connect 49 0 34 0;
#X connect 49 0 33 0;
#X coords 0 -1 1 1 300 150 2 100 100;
