#N canvas 439 136 572 752 12;
#X obj 173 222 vu 15 120 empty empty -1 -8 0 10 -66577 -1 1 0;
#X obj 290 222 vu 15 120 empty empty -1 -8 0 10 -66577 -1 1 0;
#X obj 28 126 env~;
#X obj 379 128 env~;
#X text 217 107 VU Meters;
#X text 158 153 Input A;
#X text 268 153 Input B;
#X floatatom 281 196 5 0 0 0 - - -;
#X obj 28 69 r~ fileoutput;
#X obj 380 53 r~ voiceoutput;
#X obj 436 337 min;
#X obj 435 371 max;
#X obj 315 109 bng 15 250 50 0 empty empty empty 17 7 0 10 -204800
-1 -1;
#X msg 435 278 -100;
#X msg 434 307 100;
#X floatatom 281 371 5 0 0 0 - - -;
#X obj 36 322 min;
#X obj 40 355 max;
#X floatatom 166 196 5 0 0 0 - - -;
#X floatatom 165 368 5 0 0 0 - - -;
#X text 169 347 Max;
#X text 169 171 Min;
#X text 286 351 Max;
#X text 283 171 Min;
#X text 337 109 <=Reset;
#X obj 379 153 - 0;
#X obj 28 152 - 0;
#X connect 0 0 16 0;
#X connect 0 0 17 0;
#X connect 1 0 10 0;
#X connect 1 0 11 0;
#X connect 2 0 26 0;
#X connect 3 0 25 0;
#X connect 7 0 10 1;
#X connect 8 0 2 0;
#X connect 9 0 3 0;
#X connect 10 0 7 0;
#X connect 11 0 15 0;
#X connect 12 0 13 0;
#X connect 12 0 14 0;
#X connect 13 0 11 1;
#X connect 13 0 17 1;
#X connect 14 0 10 1;
#X connect 14 0 16 1;
#X connect 15 0 11 1;
#X connect 16 0 18 0;
#X connect 17 0 19 0;
#X connect 18 0 16 1;
#X connect 19 0 17 1;
#X connect 25 0 1 0;
#X connect 26 0 0 0;
#X coords 0 -1 1 1 300 300 2 100 100;
